<svg width="1280" height="960" viewBox="0 0 1280 960" fill="none" xmlns="http://www.w3.org/2000/svg">
<path d="M1197.8 0.700026C1198.5 1.00003 1199.4 0.900026 1199.7 0.600026C1200.1 0.300026 1199.5 2.56884e-05 1198.4 0.100026C1197.3 0.100026 1197 0.400026 1197.8 0.700026Z" fill="black"/>
<path d="M773.9 121.4C773.7 121.6 770.4 122 766.5 122.3C752 123.5 730.9 128.4 720.3 133.1C717.9 134.2 715.8 135 715.4 135C715.1 135 711.9 136.3 708.3 138C704.8 139.6 701.5 141 701 141C700.5 141 700 141.4 699.8 141.8C699.7 142.3 696.1 144.6 692 147C673.8 157.5 654.9 174.1 643 189.9C641.6 191.8 639.4 194.6 638 196.2L635.5 199.1L629.3 191.3C618.2 177.3 596.9 158.2 583.9 150.5C582 149.4 578 147.1 575 145.3C572 143.5 568.8 141.8 568 141.4C567.2 141.1 563.1 139.3 559 137.4C547.1 132.1 536.8 128.9 520.1 125.5C512 123.8 489 122.5 480.5 123.3C431.9 127.5 386 152.6 356.7 190.9C352.6 196.2 348.1 202.6 346.6 205.1C345.1 207.5 343.5 210.2 343 211C340.2 215.6 332.5 233.5 329.9 241.7C326.7 251.4 323.6 265.2 322.2 275C321.3 282 321.3 316.3 322.2 325.5C323.1 334.8 326.5 354.1 328.4 361.2C329.3 364.4 330.7 369.6 331.5 372.7C333.3 379.2 336.8 389.7 340 398C341.2 401 342.8 405.3 343.6 407.4C346.1 414.2 360 442.1 365.3 451C375.4 467.9 387.4 486.2 389.6 488.1C390.4 488.7 391 489.7 391 490.2C391 490.7 391.9 492.4 393.1 493.8C394.2 495.3 397.1 499 399.3 502.1C407 512.4 423.5 532.3 429.2 538.1C432.1 541.1 435.1 542.2 438.5 541.6C442.6 540.8 444.4 538.8 447 531.9C453.8 513.4 471 499.2 490.3 496C500.3 494.3 516.7 495.3 522 498C524.1 499.1 526.4 500 526.9 500C529.2 500 539.9 507.7 545.7 513.5C553.1 521 560 534.1 564 548.5C564.5 550.1 568.3 561.2 572.5 573C576.7 584.8 580.5 595.8 581 597.5C581.5 599.1 583.7 605.7 586 612C588.2 618.3 591.9 628.9 594.1 635.5C596.2 642.1 598.4 648.4 598.9 649.5C599.4 650.6 600.1 652.4 600.3 653.5C601.5 658.3 613 690.3 614 691.4C614.5 692.2 619.4 695.4 624.7 698.6C637.2 706.1 638.6 706.1 651.3 698.5C656.6 695.4 661.4 692.3 661.9 691.6C662.4 691 672.4 661.9 684.1 627C695.7 592.1 707.9 555.8 711.1 546.3C717.7 526.6 720.5 520.8 727.4 513.2C742.8 496.4 767.4 489.5 790 495.7C798 498 803.6 501.1 811.4 507.7C819.4 514.4 824.1 520.7 827.1 529C829.9 536.8 833.7 540.5 838.2 539.6C842.4 538.8 842.9 538.3 852 528C869.6 508.1 897.4 468.8 908.1 448.7C908.6 447.8 909.4 446.2 910 445.2C913.6 438.9 919.9 426.4 922.7 420C924.5 415.9 926.7 411.1 927.5 409.5C928.3 407.8 930.5 402 932.5 396.5C934.5 391 936.5 385.5 937 384.2C937.6 382.9 938 380.8 938 379.5C938 378.1 938.4 377 938.8 377C939.5 377 941.4 370.7 942.6 364.3C942.7 363.7 943.3 361.6 943.9 359.8C945.4 355.1 948.7 335.3 950.1 323.1C951.4 311.3 950.8 274.9 949.1 268.5C948.6 266.3 947.8 262.9 947.5 261C944 240.8 932.2 213.1 919.7 195.4C893.8 158.7 851.9 131.9 808.5 123.9C797.5 121.9 775.1 120.3 773.9 121.4Z" fill="#FF0000"/>
<path d="M1033.4 326C1019.4 328 1007.9 338.5 1005.5 351.3C1005.1 353.3 1004.7 355 1004.6 355C1004.6 355.1 1001.6 355.3 998 355.6C989.7 356.2 985.7 357.5 979.8 361.2C970.2 367.2 967.2 373.5 963.6 395C963.3 396.9 962.8 399.4 962.6 400.5C962.4 401.6 961.5 407.7 960.6 414C959.6 420.3 958.5 426.2 958.1 427C957.6 427.8 955.4 428.8 953 429.2C939.3 431.5 928.6 443.3 925.9 459C925.4 462 924.5 467.9 924 472C923.5 476.1 922.8 480.6 922.5 482C922.3 483.4 921.8 485.6 921.5 487C921.2 488.4 920.8 491.5 920.5 494C920.3 496.5 919.7 500.7 919.1 503.5C918.6 506.2 917.9 510.5 917.5 513C917.2 515.5 916.4 520.2 915.9 523.5C915.4 526.8 914.5 532.4 913.9 536C913.4 539.6 912.7 543.6 912.5 545C912.2 546.4 911.1 553.6 909.9 561C908.8 568.4 907.8 575.4 907.5 576.5C907.3 577.6 907.1 579.2 907.1 580.2C907 581.1 901.5 587.1 894.8 593.7C888.1 600.2 875.8 612.1 867.5 620.2C836.5 650.5 829.4 657.3 825 660.9C822.5 662.9 820 665 819.3 665.7C818.6 666.3 814.8 668.1 810.8 669.7C804.4 672.1 802.2 672.5 793.3 672.5C786.9 672.5 782.6 672 781.9 671.3C781 670.4 781.2 668.5 782.8 663.3C784 659.6 785.4 654.7 785.9 652.5C786.5 650.3 787.6 646.2 788.4 643.5C789.2 640.7 791.2 633.5 792.9 627.5C794.6 621.4 797.3 611.8 799 606C800.6 600.2 802.6 593 803.4 590C804.2 587 806.5 578.9 808.5 572C814.5 551.6 814 539.8 806.7 528.4C802.5 521.8 797.1 517.9 786.5 513.8C781.8 512 778.5 511.6 771.5 511.6C763.2 511.6 761.9 511.9 755 515.2C745.3 519.9 738.1 527 733.6 536.4C731.7 540.3 729.9 545.1 729.5 547C729.1 548.9 728.1 551.8 727.4 553.5C726.7 555.1 725.2 559.4 724 563C720.8 573.1 713.4 595.6 710.2 605C705.9 617.4 702.4 628.2 688.4 670.5C681.4 691.4 675.4 709.4 675 710.5C674.5 711.6 671.9 719.5 669.1 728C666.3 736.5 662.7 747.6 661.1 752.6C658.3 761.1 655.2 773.8 653.4 783.5C653 785.7 652.6 788.2 652.4 789C648.6 808.7 648.6 844.9 652.4 876C654.4 892.6 657.9 916.9 660 929.5C662.5 944.1 662.5 944.2 663.4 951C663.8 954 664.4 957.3 664.6 958.2C665.1 959.9 670 960 749 960C824.5 960 832.8 959.8 833.4 958.4C833.7 957.5 834 942.8 834 925.7C834 886 835.2 877.2 842.9 861.5L847.9 851.2L877.7 821.8C914.8 785.3 942.5 758.2 964.5 736.9C973.8 727.9 989.6 712.6 999.5 702.9C1009.4 693.2 1025.1 677.9 1034.4 668.9C1053 650.8 1059.5 643 1064.5 632.5C1068.8 623.5 1073.6 608.7 1075.5 598.5C1076.4 594.1 1077.5 588.9 1078 587C1078.8 583.9 1081.3 568.3 1082.6 558C1082.8 556.1 1084 548.9 1085.1 542C1086.3 535.1 1087.4 527.7 1087.5 525.5C1087.7 523.3 1088.8 514.7 1089.9 506.5C1092.8 486.2 1092.8 485.7 1094 475.7C1094.5 470.9 1095.5 463.1 1096.1 458.2C1096.7 453.4 1097.3 448.1 1097.5 446.5C1098 442.4 1101.7 414 1102.5 408C1103 404.7 1103.5 400.1 1106 378.5C1106.5 373.5 1107.2 368.2 1107.4 366.6C1107.9 362.3 1105.7 352.1 1103.2 347.3C1100.7 342.5 1092.9 336.2 1085.7 333.1C1080.1 330.7 1071.5 330.3 1064.5 332.2C1060.8 333.2 1059.5 333.2 1057.8 332.1C1052.1 328.5 1048.9 327.2 1044.1 326.1C1041.3 325.5 1038.8 325.1 1038.7 325.1C1038.6 325.2 1036.2 325.6 1033.4 326Z" fill="black"/>
<path d="M223.9 331.4C221.9 332.2 218.4 334 216.2 335.5C212.5 337.9 211.7 338.1 208.9 337.1C203.4 335.2 191.5 335.7 185.7 338.2C175.2 342.5 166.5 354.2 165.3 365.4C165 368.2 165.3 373.9 165.9 378C166.6 382.1 167.3 387.7 167.6 390.5C167.8 393.2 168.7 400 169.5 405.5C170.7 414.4 172.1 424.7 172.5 427.5C172.5 428 172.9 430.7 173.3 433.5C173.7 436.2 174.8 443.4 175.6 449.5C176.4 455.5 177.3 461.8 177.6 463.5C177.8 465.1 178.5 470.3 179 475C179.9 482.8 181.5 493.7 182.6 500C182.9 501.4 183.5 506.3 184.1 511C184.6 515.7 185.5 522.3 186.1 525.8C186.6 529.2 187.2 533.2 187.4 534.8C187.8 537.5 191.3 559.5 192.5 566C192.8 567.9 193.5 572 194 575C199.7 609.1 205.1 627.1 214.5 643.6C218.8 651.1 226.2 658.9 256.9 688C267.1 697.6 276.8 706.8 278.5 708.5C285.1 714.9 320.7 748.8 323.6 751.6C331.7 759.1 359.7 785.6 370 795.5C376.3 801.5 388 812.8 396 820.5C425.5 848.8 430.6 854.5 435 863.3C438.6 870.5 440.2 875.3 442.6 885.7C443 887.2 443.6 904.5 444 924C444.4 943.5 444.8 959.6 444.9 959.7C444.9 959.9 483 960 529.5 960H613.9L614.4 956.7C614.7 955 615.4 950.3 616.1 946.5C616.7 942.6 617.4 938.1 617.5 936.5C617.7 934.8 618.7 927.7 619.9 920.5C621 913.3 622.2 905.5 622.4 903C622.7 900.5 623.5 894.7 624.1 890C626.3 872.4 627.2 858.8 627.5 836C627.8 810.8 627.1 802.6 622.4 777C621.7 773.6 615 750.2 613.8 747C612.7 744.2 595 693.1 591.5 682.5C590.2 678.6 585 663.6 580 649C575 634.4 570.2 620.7 569.5 618.5C567.2 611.7 554.4 574.8 552.1 568.5C550.9 565.2 548.4 558 546.6 552.5C544.7 547 542 540 540.6 536.9C535.3 525.9 521.3 515.1 510 513.5C507.5 513.2 504.7 512.8 503.6 512.6C500.1 512.1 487.9 515 482.4 517.6C471.3 522.8 463 534.9 461.7 547.6C461.1 553.7 463 564.2 466.6 575C467.5 577.5 468.8 581.7 469.5 584.5C471 590.2 480 621.5 485.5 640C487.5 646.9 489.8 654.7 490.5 657.5C491.3 660.2 492.6 664.7 493.4 667.5C494.2 670.2 494.7 672.7 494.4 673C494.1 673.3 489.1 673.7 483.3 673.8C474.3 674.1 471.9 673.9 466.6 671.9C455.1 667.7 455.6 668.2 416.5 630.9C367.8 584.5 368 584.8 367.6 581.5C367.4 579.8 366.3 573.1 365.1 566.5C364 559.9 362.8 552.7 362.5 550.5C362.1 548.3 361.3 543.3 360.5 539.5C359 531.4 357.9 525.5 357.5 522C357.3 520.6 356.6 516.6 356 513C355.4 509.4 354.5 503.6 353.9 500C352.8 492.7 352.7 492.1 349.9 476.2C348.8 469.9 347.8 463.6 347.6 462.2C345.9 447.3 334.3 435.1 319.4 432.4C315.3 431.6 314.3 430.5 313.7 425.2C313.3 422.6 312.8 418.7 312.5 416.5C312.2 414.3 311.3 409.1 310.5 405C309.8 400.9 308.8 395.5 308.4 393C308 390.5 307.6 388.3 307.5 388C307.4 387.7 307 385.9 306.6 384C303.4 370.3 290.8 360.5 274.9 359.3L268.2 358.7L267 354.6C262.4 339.3 251.4 330.8 235.5 330.3C230.5 330.1 226.1 330.6 223.9 331.4Z" fill="black"/>
</svg>
