<?xml version="1.0" standalone="no"?>
<!DOCTYPE svg PUBLIC "-//W3C//DTD SVG 20010904//EN"
 "http://www.w3.org/TR/2001/REC-SVG-20010904/DTD/svg10.dtd">
<svg version="1.0" xmlns="http://www.w3.org/2000/svg"
 width="1019.000000pt" height="1280.000000pt" viewBox="0 0 1019.000000 1280.000000"
 preserveAspectRatio="xMidYMid meet">
<g transform="translate(0.000000,1280.000000) scale(0.100000,-0.100000)"
fill="#4caf50" stroke="none">
<path d="M4060 12758 c-85 -4 -361 -16 -613 -26 -428 -17 -459 -20 -485 -39
-15 -11 -33 -31 -39 -44 -10 -19 -13 -248 -13 -1014 0 -951 1 -991 19 -1021
20 -32 35 -40 146 -72 39 -11 113 -34 165 -50 52 -17 212 -67 355 -111 143
-45 271 -86 285 -91 14 -4 84 -27 155 -49 72 -22 186 -57 255 -79 l125 -39
170 23 c94 13 204 28 245 33 41 6 111 15 155 21 44 7 110 15 147 20 38 4 78
14 91 23 16 10 47 15 98 14 69 0 359 37 649 84 69 11 141 21 160 21 30 1 291
34 545 68 39 6 98 13 133 17 75 7 122 35 133 77 5 16 11 515 15 1108 l7 1079
-28 29 -29 30 -1345 -2 c-740 -1 -1416 -5 -1501 -10z"/>
<path d="M1180 9680 l0 -1690 35 0 35 0 0 1639 c0 1477 2 1641 16 1655 14 14
89 16 675 16 l660 0 -3 33 -3 32 -707 3 -708 2 0 -1690z"/>
<path d="M7174 11356 c-3 -8 -4 -23 -2 -33 3 -17 37 -18 683 -23 374 -3 686
-9 693 -13 9 -7 12 -348 12 -1653 l0 -1644 35 0 35 0 0 1690 0 1690 -725 0
c-623 0 -726 -2 -731 -14z"/>
<path d="M3070 7035 l0 -3116 33 3 32 3 0 3110 0 3110 -32 3 -33 3 0 -3116z"/>
<path d="M6760 7035 l0 -3115 35 0 35 0 0 3115 0 3115 -35 0 -35 0 0 -3115z"/>
<path d="M4775 9998 c-3 -7 -4 -443 -3 -968 l3 -955 30 0 30 0 0 965 0 965
-28 3 c-16 2 -29 -2 -32 -10z"/>
<path d="M18 7774 c-13 -13 -10 -2002 3 -2010 6 -3 68 -1 137 5 240 22 762 61
806 61 25 0 47 -4 50 -9 10 -15 -46 -435 -58 -449 -7 -7 -52 -17 -102 -23
-161 -20 -426 -59 -435 -65 -13 -7 -11 -58 3 -89 6 -15 32 -35 62 -50 74 -36
212 -75 267 -75 56 0 342 42 739 109 453 77 465 80 458 103 -2 6 -71 31 -153
55 -145 43 -155 44 -310 48 -88 2 -163 4 -167 5 -13 0 -27 72 -33 170 -8 112
8 267 29 288 10 10 51 17 128 23 157 11 361 26 503 38 66 6 181 15 255 21 74
6 138 14 143 19 4 4 6 376 5 826 l-3 820 -50 7 c-27 4 -113 12 -190 18 -210
15 -915 70 -1285 100 -69 5 -188 14 -265 20 -77 6 -189 15 -250 20 -226 19
-280 22 -287 14z"/>
<path d="M3665 7769 c-3 -8 -4 -462 -3 -1009 l3 -995 70 2 c39 1 216 14 395
28 179 15 372 29 429 32 l104 6 -6 -79 c-9 -113 -43 -369 -51 -382 -3 -5 -45
-15 -93 -21 -471 -61 -459 -58 -456 -99 5 -57 21 -80 72 -107 69 -34 214 -75
270 -75 65 0 444 58 916 140 66 12 146 25 177 31 85 14 113 26 99 43 -6 8 -22
16 -34 19 -12 3 -78 22 -147 42 -118 36 -133 38 -281 40 -86 1 -161 5 -167 9
-32 20 -42 354 -12 433 13 36 19 37 180 47 47 3 141 10 210 16 69 5 186 14
260 20 304 24 372 30 381 36 5 3 9 346 9 828 l0 823 -117 11 c-108 10 -297 26
-448 37 -85 6 -804 62 -965 75 -74 6 -191 15 -260 21 -69 5 -177 14 -240 19
-280 23 -289 23 -295 9z"/>
<path d="M7377 7774 c-12 -12 -9 -2002 4 -2009 6 -4 70 -2 142 4 282 25 758
61 801 61 25 0 47 -4 50 -9 3 -5 2 -33 -3 -62 -5 -30 -14 -99 -21 -154 -17
-151 -31 -234 -39 -240 -9 -5 -97 -18 -246 -35 -55 -6 -122 -15 -150 -20 -27
-5 -71 -11 -97 -15 l-48 -6 0 -43 c0 -29 6 -49 22 -65 42 -46 230 -111 319
-111 26 0 107 9 180 20 142 22 467 74 559 90 77 13 285 49 345 60 149 25 143
40 -45 97 -143 44 -147 45 -310 47 -162 3 -165 4 -177 27 -17 35 -27 201 -18
313 10 135 12 138 156 147 156 11 321 24 762 59 66 6 123 12 128 16 5 3 9 346
9 828 l0 823 -117 11 c-148 14 -254 23 -963 77 -179 13 -379 29 -445 35 -66 5
-178 14 -250 20 -71 5 -186 14 -255 20 -69 5 -161 12 -205 16 -44 3 -83 2 -88
-2z"/>
<path d="M2100 5124 c-69 -12 -179 -32 -245 -44 -66 -11 -142 -25 -170 -30
-74 -13 -216 -38 -340 -60 -60 -11 -213 -38 -340 -60 -126 -23 -282 -50 -345
-61 -63 -11 -137 -24 -165 -29 -111 -20 -230 -41 -312 -55 -89 -15 -113 -30
-113 -66 0 -19 425 -538 447 -546 13 -5 119 25 343 97 47 16 186 60 310 100
124 39 286 91 360 115 74 24 230 73 345 110 827 263 924 294 931 307 11 18
-28 44 -141 91 -60 25 -169 71 -242 101 -80 34 -144 56 -165 55 -18 -1 -89
-12 -158 -25z"/>
<path d="M5859 5146 c-3 -3 -34 -10 -69 -15 -57 -10 -143 -25 -345 -61 -27 -5
-102 -18 -165 -29 -63 -11 -153 -27 -200 -35 -47 -8 -200 -35 -340 -60 -305
-54 -392 -69 -592 -105 -29 -6 -132 -23 -228 -40 -150 -26 -177 -33 -192 -53
-10 -13 -17 -28 -15 -34 5 -27 443 -543 460 -543 10 -1 116 30 235 68 119 39
269 86 332 106 63 20 176 56 250 80 74 24 236 75 360 115 124 39 236 75 250
80 14 5 106 34 205 65 99 31 205 65 235 75 30 10 135 44 232 75 98 31 180 60
184 66 10 18 -16 37 -94 69 -42 18 -90 38 -107 46 -238 107 -374 152 -396 130z"/>
<path d="M9505 5134 c-72 -15 -211 -40 -415 -75 -63 -11 -137 -24 -165 -29
-221 -40 -298 -53 -500 -89 -126 -22 -269 -47 -317 -56 -49 -8 -126 -22 -173
-30 -99 -17 -238 -42 -312 -56 -29 -5 -79 -13 -110 -19 -40 -7 -63 -17 -75
-32 -10 -13 -18 -26 -18 -30 0 -4 66 -87 148 -186 81 -98 181 -219 222 -270
43 -52 83 -91 93 -91 10 -1 118 31 240 70 122 39 276 88 342 109 66 21 185 59
265 85 80 26 186 60 235 75 50 16 146 46 215 68 69 22 170 55 225 72 692 219
760 242 760 260 0 19 -45 42 -303 150 -230 97 -235 98 -357 74z"/>
<path d="M1966 3614 c-9 -25 -7 -1977 3 -1992 7 -12 33 -12 152 -3 79 7 203
16 274 22 597 46 561 44 568 27 3 -9 1 -49 -4 -89 -17 -129 -30 -232 -36 -289
-7 -68 -25 -90 -72 -90 -39 0 -138 -13 -346 -44 l-140 -21 -3 -29 c-10 -81 48
-121 257 -177 l74 -20 136 21 c280 43 400 62 546 86 163 28 466 81 503 89 26
6 29 31 5 38 -10 2 -81 24 -158 47 -132 40 -149 42 -305 49 l-165 6 -11 65
c-23 127 -10 364 20 389 6 5 74 14 151 20 77 6 192 15 255 21 63 5 176 14 250
20 251 20 365 32 373 39 4 4 6 376 5 826 l-3 820 -50 6 c-27 4 -124 12 -215
18 -91 7 -212 16 -270 21 -58 5 -166 14 -240 20 -74 5 -191 15 -260 20 -69 6
-330 26 -580 45 -250 19 -505 39 -566 45 -141 13 -141 13 -148 -6z"/>
<path d="M5657 3615 c-10 -25 -8 -1978 2 -1993 7 -12 33 -12 152 -3 135 11
192 15 524 41 305 23 312 24 317 9 9 -24 -46 -435 -61 -453 -8 -10 -28 -16
-53 -16 -21 0 -69 -4 -106 -10 -97 -14 -290 -41 -339 -47 -49 -6 -55 -17 -41
-73 15 -59 75 -92 256 -141 65 -17 86 -19 137 -10 33 5 94 15 135 21 153 22
839 136 953 158 87 17 77 31 -51 71 -202 62 -213 64 -376 70 l-160 6 -9 30
c-5 17 -10 107 -11 200 -1 213 4 227 84 237 30 3 123 12 205 18 83 6 204 15
270 20 66 5 179 14 250 19 72 6 156 13 188 17 l57 7 0 823 c0 482 -4 825 -9
828 -9 6 -109 15 -391 37 -74 5 -189 14 -255 19 -66 6 -178 14 -250 20 -71 5
-245 18 -385 30 -503 40 -647 51 -770 60 -69 5 -155 12 -191 16 -57 6 -67 4
-72 -11z"/>
<path d="M4150 990 c-43 -8 -229 -41 -335 -60 -27 -5 -102 -18 -165 -29 -63
-11 -167 -29 -230 -40 -63 -12 -194 -35 -290 -51 -216 -38 -315 -55 -450 -80
-172 -31 -278 -50 -400 -71 -249 -43 -259 -46 -260 -92 0 -10 84 -120 188
-245 103 -125 205 -248 226 -275 26 -32 42 -44 50 -38 10 8 339 116 641 211
50 15 110 35 135 43 25 8 126 41 225 72 99 31 191 60 205 65 14 5 133 43 265
85 132 42 294 94 360 115 66 21 193 61 283 90 167 53 185 65 140 94 -13 8
-111 51 -218 96 -107 45 -215 91 -239 101 -46 20 -60 21 -131 9z"/>
<path d="M7775 979 c-132 -24 -186 -34 -330 -59 -66 -11 -142 -25 -170 -30
-95 -17 -231 -41 -485 -85 -268 -47 -346 -61 -420 -75 -25 -5 -101 -18 -170
-30 -69 -12 -156 -28 -195 -35 -38 -7 -116 -21 -173 -31 -94 -16 -104 -20
-117 -45 -17 -31 -36 -4 269 -373 122 -147 183 -213 190 -207 13 11 34 18 281
96 99 31 200 64 225 72 67 22 752 241 845 270 44 14 105 33 135 43 30 10 136
44 235 75 99 31 212 67 250 80 39 12 117 37 175 55 116 36 140 51 121 73 -6 8
-73 40 -149 72 -75 32 -188 79 -251 106 -63 27 -126 48 -140 48 -14 -1 -71
-10 -126 -20z"/>
</g>
</svg>
