<?xml version="1.0" standalone="no"?>
<!DOCTYPE svg PUBLIC "-//W3C//DTD SVG 20010904//EN"
 "http://www.w3.org/TR/2001/REC-SVG-20010904/DTD/svg10.dtd">
<svg version="1.0" xmlns="http://www.w3.org/2000/svg"
 width="949.000000pt" height="1280.000000pt" viewBox="0 0 949.000000 1280.000000"
 preserveAspectRatio="xMidYMid meet">
<metadata>
Created by potrace 1.15, written by Peter Selinger 2001-2017
</metadata>
<g transform="translate(0.000000,1280.000000) scale(0.100000,-0.100000)"
fill="#000000" stroke="none">
<path d="M5655 12793 c-22 -2 -114 -15 -205 -29 -269 -42 -362 -53 -420 -54
-116 0 -312 -101 -417 -214 -72 -76 -114 -146 -144 -241 -50 -159 -123 -256
-231 -309 -101 -49 -148 -55 -458 -56 -532 0 -644 -40 -1002 -348 -279 -241
-452 -481 -499 -692 l-13 -57 -112 -12 c-262 -26 -497 -122 -731 -298 -131
-98 -227 -198 -431 -448 -108 -132 -275 -334 -371 -448 -97 -115 -182 -220
-190 -234 -26 -51 -119 -290 -165 -428 -127 -380 -199 -732 -248 -1215 -17
-164 -16 -826 0 -1020 33 -374 81 -722 143 -1025 93 -460 299 -1202 453 -1637
42 -118 50 -133 125 -224 327 -394 412 -697 415 -1474 0 -173 -5 -395 -11
-494 -7 -98 -13 -339 -13 -535 l0 -356 63 -78 c61 -77 63 -79 147 -107 119
-40 338 -132 750 -318 583 -262 834 -348 1205 -414 118 -20 159 -22 445 -22
291 0 402 6 660 35 351 39 678 108 966 204 228 76 446 191 642 337 124 92 367
335 459 458 l70 95 -23 355 c-13 195 -27 414 -32 485 l-8 130 49 235 c26 129
83 410 127 623 73 361 82 395 121 473 75 149 186 263 331 339 67 35 77 47 720
818 359 430 705 845 768 922 395 484 688 957 855 1380 l48 120 -7 193 c-7 219
-26 421 -57 597 -21 125 -118 518 -219 885 -32 118 -81 298 -109 400 l-50 186
19 79 c97 396 131 997 80 1420 -54 444 -178 858 -371 1235 -53 105 -180 324
-198 343 -8 8 -24 12 -336 92 -330 84 -545 113 -775 101 -295 -14 -530 -85
-689 -206 -29 -23 -54 -40 -55 -38 -2 2 -25 46 -52 98 -60 116 -176 240 -264
282 -196 92 -495 136 -755 111z m330 -243 c153 -39 262 -109 336 -217 27 -38
29 -49 29 -133 0 -91 0 -92 -22 -86 -63 17 -225 28 -338 22 -333 -16 -579
-116 -705 -287 -120 -163 -297 -465 -348 -594 -42 -104 -72 -259 -64 -327 17
-143 166 -401 644 -1117 123 -183 223 -336 223 -340 0 -3 -144 -5 -320 -3
-266 2 -320 0 -320 -11 0 -20 51 -88 91 -121 90 -76 179 -75 602 6 153 29 173
31 234 21 129 -23 250 -107 302 -212 18 -36 17 -39 -44 -376 l-61 -340 -33 72
c-40 87 -123 171 -203 208 -116 53 -284 68 -461 41 l-89 -13 -141 -142 -142
-142 23 -19 c50 -41 147 -61 372 -75 292 -19 386 -49 430 -135 23 -46 35 -150
22 -194 -19 -66 -163 -131 -316 -142 -79 -6 -367 10 -436 24 -34 8 -37 12 -95
145 -33 75 -63 137 -68 137 -4 0 -33 -19 -63 -41 -30 -23 -56 -40 -58 -38 -2
2 -27 186 -55 409 -29 223 -127 983 -217 1690 -188 1464 -183 1389 -124 1678
54 269 103 382 211 490 83 82 170 132 231 132 27 0 163 11 301 25 348 34 338
33 472 29 74 -3 151 -12 200 -24z m2010 -215 c224 -35 315 -75 415 -182 136
-146 246 -434 295 -776 12 -85 41 -765 32 -773 -1 -1 -27 18 -57 43 -169 141
-420 280 -909 503 -387 178 -697 368 -874 539 l-48 46 6 75 c15 168 78 340
156 425 55 59 87 82 152 106 49 19 72 19 392 15 240 -4 369 -10 440 -21z
m-1702 -513 c88 -40 168 -104 297 -239 143 -148 322 -351 318 -361 -2 -4 -59
-90 -127 -191 -70 -104 -116 -181 -106 -177 32 12 197 57 199 54 1 -2 10 -15
19 -30 17 -27 17 -30 -3 -69 -12 -22 -46 -66 -75 -96 l-54 -56 -118 7 c-423
24 -788 164 -1116 425 -43 34 -80 68 -83 75 -7 19 72 238 123 341 93 187 176
263 357 327 75 27 89 29 191 25 97 -4 118 -8 178 -35z m-2612 -107 c57 -8 153
-19 213 -24 134 -13 182 -34 237 -103 247 -313 425 -1223 489 -2493 22 -444
39 -1325 26 -1325 -3 0 -20 9 -38 19 -81 48 -166 66 -303 66 -141 0 -237 -20
-333 -69 -46 -23 -50 -31 -164 -243 -64 -120 -140 -266 -169 -325 -30 -60 -56
-108 -59 -108 -4 0 -48 42 -98 94 l-92 93 0 214 c0 564 -69 1283 -171 1782
-109 535 -297 994 -585 1428 -50 76 -84 137 -84 152 0 46 30 158 60 224 122
269 398 450 966 633 0 0 47 -7 105 -15z m1774 -53 c-6 -5 -32 -28 -60 -52
l-50 -43 52 51 c28 29 55 52 59 52 5 0 4 -4 -1 -8z m-210 -453 l0 -141 90 -87
c259 -250 619 -448 940 -517 54 -11 130 -17 230 -18 239 -1 336 27 443 128 74
69 124 142 227 331 102 188 109 197 138 185 12 -4 162 -76 332 -160 171 -83
408 -199 529 -258 l218 -107 -6 -76 c-12 -150 -65 -268 -156 -352 -31 -29
-114 -86 -186 -129 -123 -73 -494 -263 -494 -254 0 3 104 130 232 282 214 257
229 277 198 271 -102 -21 -253 -125 -361 -248 -67 -76 -229 -296 -229 -311 0
-17 113 -122 166 -154 44 -26 57 -29 129 -28 96 2 170 27 320 111 172 96 246
152 397 301 l147 145 12 -29 c109 -277 270 -858 429 -1549 18 -77 43 -185 56
-240 13 -55 32 -140 43 -190 34 -152 117 -503 151 -637 l32 -128 -30 -117
c-91 -363 -309 -771 -662 -1241 -151 -201 -264 -338 -575 -697 -477 -551 -748
-877 -903 -1087 l-72 -97 -173 -85 c-390 -192 -696 -306 -947 -351 -203 -37
-519 -30 -720 16 -163 38 -229 69 -437 208 -81 54 -201 132 -265 174 l-118 76
1 -67 c0 -37 6 -99 13 -139 15 -83 48 -134 179 -270 213 -222 400 -285 897
-302 l195 -7 -40 -19 c-34 -17 -61 -20 -170 -19 -119 1 -145 4 -295 43 -186
47 -310 60 -388 42 l-51 -13 15 -41 c23 -65 61 -123 101 -155 62 -48 141 -69
333 -86 172 -16 313 -34 438 -57 l62 -11 -5 -82 c-13 -185 -28 -334 -56 -556
-82 -657 -88 -892 -29 -1182 19 -92 61 -234 80 -267 9 -17 -21 -41 -304 -244
-264 -189 -395 -247 -562 -247 l-72 0 -47 90 c-90 175 -158 438 -184 705 -28
300 -30 270 74 1238 l96 898 -20 28 c-12 16 -36 36 -55 45 -43 20 -158 21
-241 2 -55 -13 -66 -21 -130 -89 -138 -145 -174 -239 -235 -602 -73 -427 -72
-425 -83 -385 -14 54 -2 529 17 635 21 124 52 237 87 320 16 38 25 73 21 77
-18 18 -81 20 -133 4 -30 -8 -103 -43 -163 -76 -127 -71 -207 -105 -268 -115
-24 -3 -86 -15 -138 -25 -640 -127 -965 -136 -1380 -38 -214 50 -499 207 -651
358 -200 199 -315 447 -513 1105 -273 910 -423 1618 -467 2205 -16 222 -16
759 0 896 l13 112 167 7 c91 3 231 10 311 15 408 26 776 -3 816 -65 23 -35
144 -300 284 -620 125 -286 162 -350 261 -459 161 -176 397 -264 628 -235 47
5 93 16 101 24 26 24 114 64 221 101 139 48 191 78 250 142 l50 54 367 -92
c202 -50 369 -93 373 -96 3 -2 -29 -97 -72 -211 -160 -421 -186 -515 -198
-713 l-6 -115 -28 53 c-33 62 -54 154 -65 272 l-7 85 -28 -50 c-67 -118 -87
-232 -87 -490 0 -217 18 -399 56 -560 25 -102 30 -113 69 -151 78 -75 420
-323 431 -312 2 3 -12 114 -30 249 -47 336 -56 441 -56 684 0 349 46 612 137
789 37 71 1144 1214 1288 1329 287 230 640 366 947 367 l46 0 17 -52 c60 -185
272 -668 338 -771 102 -158 240 -252 401 -272 56 -6 58 -6 45 12 -8 10 -55 73
-105 139 -307 409 -452 793 -471 1250 l-6 142 27 17 c14 10 45 20 69 22 35 4
55 -2 121 -36 43 -22 93 -43 110 -46 39 -8 82 8 118 42 l27 26 -94 99 c-248
258 -327 388 -297 492 18 66 103 89 377 105 161 8 247 25 282 53 12 10 -27 50
-93 96 -83 57 -277 111 -454 127 -281 24 -485 83 -646 187 -110 71 -268 211
-533 473 -319 315 -400 412 -491 594 -76 150 -118 307 -121 453 -1 62 5 95 40
206 23 73 43 132 44 132 1 0 2 -63 2 -141z m-2877 -632 l53 -12 175 -335 c167
-318 179 -346 249 -555 143 -429 199 -718 235 -1205 16 -219 30 -548 30 -697
l0 -133 -33 0 c-58 0 -150 -30 -205 -66 -69 -45 -100 -90 -187 -266 -71 -144
-73 -149 -84 -260 -6 -62 -14 -137 -18 -167 l-6 -53 -52 4 c-153 13 -312 177
-413 427 -31 77 -130 359 -384 1086 -118 340 -193 485 -337 653 -48 56 -165
155 -236 200 -90 57 -305 153 -305 136 0 -13 144 -286 180 -343 30 -46 36 -61
23 -57 -10 3 -39 10 -64 15 -60 13 -180 57 -244 88 -62 30 -175 105 -175 115
0 12 155 262 228 368 87 126 249 286 384 377 l106 73 44 -75 c23 -41 45 -75
48 -75 3 0 33 98 66 217 l61 217 169 94 c410 228 523 265 692 229z m-1443
-1849 c287 -98 347 -130 438 -227 28 -31 64 -80 80 -108 37 -69 67 -191 67
-275 l0 -68 -47 0 c-27 0 -190 4 -363 10 -173 5 -421 12 -550 16 l-236 6 47
307 c26 168 52 342 59 386 20 139 3 129 132 83 62 -22 230 -80 373 -130z
m3305 -1034 c25 -12 72 -30 105 -39 l58 -17 -39 -24 c-73 -44 -166 -44 -255 2
l-50 25 18 32 c36 61 75 66 163 21z m826 -175 c44 -28 83 -55 88 -59 7 -7
-160 -100 -179 -100 -3 0 -5 47 -5 105 0 58 4 105 9 105 5 0 44 -23 87 -51z
m-645 -72 c152 -5 199 -59 207 -234 l5 -103 -27 -10 c-166 -63 -565 -70 -739
-14 -43 14 -48 19 -42 38 4 11 22 76 39 143 33 126 51 157 99 178 25 11 177
11 458 2z m-1401 -197 c144 -17 134 -9 127 -95 -9 -116 -55 -202 -124 -231
-36 -15 -139 -19 -147 -5 -3 5 1 78 9 162 8 85 15 160 15 167 0 15 12 15 120
2z m884 -2135 c4 -54 3 -69 -3 -48 -5 18 -11 70 -14 115 -4 59 -3 73 3 48 5
-19 12 -71 14 -115z m2071 -2097 c-3 -40 -26 -269 -51 -509 -65 -639 -84 -868
-91 -1122 -3 -125 -10 -224 -14 -220 -4 4 -12 85 -18 180 -28 436 3 934 85
1358 27 143 85 385 92 385 2 0 1 -33 -3 -72z m-1696 -223 c-4 -132 -12 -337
-19 -455 -16 -287 -7 -1053 14 -1228 32 -249 86 -453 161 -601 25 -51 32 -73
23 -76 -51 -17 -355 -85 -383 -85 -8 0 -14 23 -18 68 -3 37 -18 126 -32 197
l-27 130 5 365 c10 583 50 960 152 1435 42 192 123 504 129 493 1 -2 -1 -111
-5 -243z m-2770 195 c73 -21 111 -81 136 -214 33 -181 104 -256 239 -256 48 0
723 73 1066 115 210 26 393 81 609 181 52 24 96 44 97 44 2 0 3 -572 2 -1272
l-3 -1272 -65 3 c-252 9 -582 97 -1055 281 -428 167 -524 203 -695 265 -96 34
-208 73 -247 85 l-73 23 0 56 c0 119 -20 623 -30 766 -28 395 -67 769 -115
1089 -8 55 -15 101 -15 102 0 4 48 11 85 13 17 0 45 -3 64 -9z"/>
<path d="M3743 8516 c3 -19 13 -52 23 -72 63 -132 361 -150 559 -35 58 34 138
101 130 109 -6 6 -507 31 -639 31 l-79 1 6 -34z"/>
<path d="M8487 9910 c-105 -203 -337 -372 -648 -474 l-102 -33 76 -5 c42 -3
83 -10 90 -17 11 -9 20 -7 39 9 14 10 92 65 174 121 271 184 348 261 385 380
11 34 18 64 16 66 -2 2 -16 -19 -30 -47z"/>
<path d="M2925 8190 c-164 -30 -608 -100 -630 -100 -17 0 -17 -2 -5 -10 20
-13 274 -13 380 0 165 20 323 70 359 114 8 9 10 15 5 15 -5 -1 -54 -9 -109
-19z"/>
</g>
</svg>
